<svg xmlns="http://www.w3.org/2000/svg" viewBox="0 0 140 140"><defs><style>.cls-1{fill:#f6b207;}</style></defs><title>diferencial4</title><g id="Camada_2" data-name="Camada 2"><g id="Camada_1-2" data-name="Camada 1"><path class="cls-1" d="M50,79.87a87.38,87.38,0,0,1,4.16-8.2q2.64-4.68,6-9.64t7.12-9.76a99.32,99.32,0,0,1,7.64-8.64H82v35.2h6.56v6.08H82V99.07h-7.2V84.91H50Zm24.8-27.44c-1.6,1.71-3.22,3.61-4.84,5.72s-3.22,4.31-4.76,6.6-3,4.64-4.36,7-2.58,4.75-3.64,7h17.6Z"></path><path class="cls-1" d="M70,122A52,52,0,0,1,70,18a3,3,0,0,1,0,6,46,46,0,1,0,34.81,15.93A3,3,0,0,1,109.35,36,52,52,0,0,1,70,122Z"></path><path class="cls-1" d="M70,140A70.08,70.08,0,0,1,0,70a3,3,0,0,1,6,0A64,64,0,1,0,28.16,21.57,3,3,0,0,1,24.23,17,70,70,0,1,1,70,140Z"></path></g></g></svg>