<svg xmlns="http://www.w3.org/2000/svg" viewBox="0 0 140 140"><defs><style>.cls-1{fill:#0b877c;}</style></defs><title>diferencial3</title><g id="Camada_2" data-name="Camada 2"><g id="Camada_1-2" data-name="Camada 1"><path class="cls-1" d="M66.82,93.57q7.13,0,10.2-2.8a10,10,0,0,0-1.56-16,14.71,14.71,0,0,0-4.84-1.76A30.11,30.11,0,0,0,65,72.53H63.06V66.45H65.7a21.92,21.92,0,0,0,4.12-.4,12,12,0,0,0,3.88-1.44,8,8,0,0,0,4-7.36,8.57,8.57,0,0,0-.8-3.84,7.57,7.57,0,0,0-2.12-2.64,8.06,8.06,0,0,0-3-1.48,14.82,14.82,0,0,0-3.64-.44A16.86,16.86,0,0,0,61.58,50a28.58,28.58,0,0,0-4.52,2.32l-2.88-5.68a25,25,0,0,1,2.44-1.4,25.91,25.91,0,0,1,3.32-1.4,30.8,30.8,0,0,1,4-1.08,22,22,0,0,1,4.44-.44,23.85,23.85,0,0,1,7.6,1.08,14.19,14.19,0,0,1,5.28,3,12.44,12.44,0,0,1,3.12,4.64,16,16,0,0,1,1,5.8,11.44,11.44,0,0,1-2.48,7.4,16.27,16.27,0,0,1-6,4.68,18.08,18.08,0,0,1,4.16,1.84,13.1,13.1,0,0,1,3.48,3,15.51,15.51,0,0,1,2.4,4.24,15,15,0,0,1,.92,5.36,17.64,17.64,0,0,1-1.24,6.68,13.77,13.77,0,0,1-3.84,5.32,18.79,18.79,0,0,1-6.52,3.52,32.35,32.35,0,0,1-13.56,1c-1.47-.22-2.84-.48-4.12-.8s-2.4-.64-3.36-1a18.31,18.31,0,0,1-2.08-.8l1.44-6.48a45.32,45.32,0,0,0,4.52,1.68A25,25,0,0,0,66.82,93.57Z"></path><path class="cls-1" d="M70,122A52.06,52.06,0,0,1,18,70a3,3,0,0,1,6,0A46,46,0,1,0,39.93,35.19,3,3,0,0,1,36,30.65,52,52,0,1,1,70,122Z"></path><path class="cls-1" d="M70,140a3,3,0,0,1,0-6,64,64,0,1,0-48.43-22.16A3,3,0,0,1,17,115.76,70,70,0,1,1,70,140Z"></path></g></g></svg>