<svg xmlns="http://www.w3.org/2000/svg" viewBox="0 0 140 140"><defs><style>.cls-1{fill:#f0903a;}</style></defs><title>diferencial2</title><g id="Camada_2" data-name="Camada 2"><g id="Camada_1-2" data-name="Camada 1"><path class="cls-1" d="M86.13,57.79A13.93,13.93,0,0,1,85,63.35a27,27,0,0,1-3.08,5.28,54.07,54.07,0,0,1-4.32,5.12q-2.4,2.52-4.8,4.92c-.91.91-2,2-3.16,3.2a51.28,51.28,0,0,0-3.4,3.84,31.79,31.79,0,0,0-2.68,3.84,6.58,6.58,0,0,0-1.08,3.2H88v6.32H54.37a5.18,5.18,0,0,1-.08-1v-.88a19.34,19.34,0,0,1,1.24-7,28.06,28.06,0,0,1,3.24-6.12,42.71,42.71,0,0,1,4.48-5.44q2.48-2.57,4.88-5,2-1.92,3.8-3.8a41,41,0,0,0,3.2-3.76,18.62,18.62,0,0,0,2.24-3.88A10.84,10.84,0,0,0,78.21,58,10,10,0,0,0,77.45,54a8.21,8.21,0,0,0-2-2.8,8.12,8.12,0,0,0-3-1.64A12.42,12.42,0,0,0,68.77,49a13.24,13.24,0,0,0-4.24.64,20.68,20.68,0,0,0-3.44,1.48,14.09,14.09,0,0,0-2.56,1.76l-1.6,1.4L53.25,49a19.26,19.26,0,0,1,2.16-2,20.42,20.42,0,0,1,3.44-2.2,24.46,24.46,0,0,1,4.48-1.76,19.13,19.13,0,0,1,5.36-.72q8.72,0,13.08,4T86.13,57.79Z"></path><path class="cls-1" d="M70,122A52,52,0,0,1,30.65,36a3,3,0,0,1,4.54,3.93A46,46,0,1,0,70,24a3,3,0,0,1,0-6,52,52,0,0,1,0,104Z"></path><path class="cls-1" d="M70,140A70,70,0,1,1,115.77,17a3,3,0,0,1-3.93,4.54A64,64,0,1,0,134,70a3,3,0,0,1,6,0A70.08,70.08,0,0,1,70,140Z"></path></g></g></svg>