<svg xmlns="http://www.w3.org/2000/svg" viewBox="0 0 140 140"><defs><style>.cls-1{fill:#1b5386;}</style></defs><title>diferencial1</title><g id="Camada_2" data-name="Camada 2"><g id="Camada_1-2" data-name="Camada 1"><path class="cls-1" d="M54.21,55.07a49.54,49.54,0,0,0,8.88-4.52A36.46,36.46,0,0,0,71,43.63h5.28V99.07H68.85V54a21.43,21.43,0,0,1-2.36,1.84,35,35,0,0,1-3,1.84c-1.1.59-2.24,1.15-3.44,1.68s-2.36,1-3.48,1.36Z"></path><path class="cls-1" d="M70,122A52,52,0,0,1,70,18a3,3,0,0,1,0,6,46,46,0,1,0,34.81,15.93A3,3,0,0,1,109.35,36,52,52,0,0,1,70,122Z"></path><path class="cls-1" d="M70,140A70.08,70.08,0,0,1,0,70a3,3,0,0,1,6,0A64,64,0,1,0,28.16,21.57,3,3,0,0,1,24.23,17,70,70,0,1,1,70,140Z"></path></g></g></svg>