<svg xmlns="http://www.w3.org/2000/svg" viewBox="0 0 114.43 114.43"><defs><style>.cls-1{fill:none;stroke:#fff;stroke-miterlimit:10;stroke-width:2px;}.cls-2{fill:#03b5bf;}</style></defs><title>insta-icon</title><g id="Camada_2" data-name="Camada 2"><g id="Camada_1-2" data-name="Camada 1"><rect class="cls-1" x="1" y="1" width="112.43" height="112.43" rx="19.21"/><path class="cls-2" d="M75.12,101.81H39.31A28.85,28.85,0,0,1,10.49,73V41.44A28.85,28.85,0,0,1,39.31,12.62H75.12a28.85,28.85,0,0,1,28.82,28.82V73A28.85,28.85,0,0,1,75.12,101.81ZM39.31,19A22.44,22.44,0,0,0,16.9,41.44V73A22.44,22.44,0,0,0,39.31,95.41H75.12A22.44,22.44,0,0,0,97.53,73V41.44A22.44,22.44,0,0,0,75.12,19Z"/><path class="cls-2" d="M57.21,82.87A25.66,25.66,0,1,1,82.87,57.22,25.68,25.68,0,0,1,57.21,82.87Zm0-44.9A19.25,19.25,0,1,0,76.46,57.22,19.27,19.27,0,0,0,57.21,38Z"/><path class="cls-2" d="M87.8,32.35A5.33,5.33,0,1,1,82.48,27,5.32,5.32,0,0,1,87.8,32.35Z"/></g></g></svg>