<svg xmlns="http://www.w3.org/2000/svg" viewBox="0 0 114.43 114.43"><defs><style>.cls-1{fill:none;stroke:#fff;stroke-miterlimit:10;stroke-width:2px;}.cls-2{fill:#03b5bf;}</style></defs><title>whats-icon</title><g id="Camada_2" data-name="Camada 2"><g id="Camada_1-2" data-name="Camada 1"><rect class="cls-1" x="1" y="1" width="112.43" height="112.43" rx="19.21"/><path class="cls-2" d="M57.21,100.26a42.83,42.83,0,0,1-21.47-5.78L19,100.26,22.42,82.5a42.51,42.51,0,0,1-8.25-25.29,43,43,0,1,1,43,43.05ZM36.52,87.44l1.29.82a36.76,36.76,0,1,0-9.45-8.52l.89,1.15-1.88,9.7Z"/><path class="cls-2" d="M35.48,40.68S38,36.26,40.07,36s4.71-.26,5.42,1.09,3.91,9.17,3.91,9.17a3.07,3.07,0,0,1-.29,2.65,26.29,26.29,0,0,1-2.73,3.19,2.33,2.33,0,0,0,0,2.78,50.55,50.55,0,0,0,6,7.43c3.37,3.37,9.84,5.77,9.84,5.77a1.94,1.94,0,0,0,1.51-.46c.59-.59,3.79-4.58,3.79-4.58a2.24,2.24,0,0,1,2.73-.55C72,63.28,79.38,67,79.38,67a1.59,1.59,0,0,1,.87,1.62c0,1.3-.53,4.49-1.61,5.57s-4.23,4.4-9,4.4-16-3.85-22-9.87S36.28,56.57,35,51,33.93,43,35.48,40.68Z"/></g></g></svg>